<svg xmlns="http://www.w3.org/2000/svg" xmlns:xlink="http://www.w3.org/1999/xlink" width="559" zoomAndPan="magnify" viewBox="0 0 419.25 297.749991" height="397" preserveAspectRatio="xMidYMid meet" version="1.0"><metadata/><defs><g/><clipPath id="b20529d640"><path d="M 25 30 L 113 30 L 113 77 L 25 77 Z M 25 30 " clip-rule="nonzero"/></clipPath><clipPath id="628cda7634"><path d="M 19.773438 53.207031 L 105.976562 20.988281 L 118.285156 53.929688 L 32.085938 86.144531 Z M 19.773438 53.207031 " clip-rule="nonzero"/></clipPath><clipPath id="e9484e8c83"><path d="M 19.777344 53.203125 L 106.679688 20.726562 L 119.285156 54.449219 L 32.382812 86.925781 Z M 19.777344 53.203125 " clip-rule="nonzero"/></clipPath><clipPath id="8c801fef6a"><path d="M 62.914062 37.082031 C 39.089844 45.988281 22.519531 60.535156 25.898438 69.582031 C 29.28125 78.625 51.332031 78.738281 75.152344 69.835938 C 98.976562 60.933594 115.546875 46.382812 112.167969 37.339844 C 108.789062 28.292969 86.734375 28.179688 62.914062 37.082031 Z M 62.914062 37.082031 " clip-rule="nonzero"/></clipPath><clipPath id="75792ea841"><path d="M 54.359375 23.546875 L 71.777344 23.546875 L 71.777344 40.964844 L 54.359375 40.964844 Z M 54.359375 23.546875 " clip-rule="nonzero"/></clipPath><clipPath id="45fb116fd2"><path d="M 63.070312 23.546875 L 65.839844 29.488281 L 71.777344 32.257812 L 65.839844 35.027344 L 63.070312 40.964844 L 60.296875 35.027344 L 54.359375 32.257812 L 60.296875 29.488281 Z M 63.070312 23.546875 " clip-rule="nonzero"/></clipPath><clipPath id="2688fb1ce5"><path d="M 0.359375 0.546875 L 17.777344 0.546875 L 17.777344 17.964844 L 0.359375 17.964844 Z M 0.359375 0.546875 " clip-rule="nonzero"/></clipPath><clipPath id="1ea0263f37"><path d="M 9.070312 0.546875 L 11.839844 6.488281 L 17.777344 9.257812 L 11.839844 12.027344 L 9.070312 17.964844 L 6.296875 12.027344 L 0.359375 9.257812 L 6.296875 6.488281 Z M 9.070312 0.546875 " clip-rule="nonzero"/></clipPath><clipPath id="978a32c74d"><rect x="0" width="18" y="0" height="18"/></clipPath><clipPath id="2931180741"><path d="M 66.183594 19.226562 L 77.375 19.226562 L 77.375 30.417969 L 66.183594 30.417969 Z M 66.183594 19.226562 " clip-rule="nonzero"/></clipPath><clipPath id="94f3a12050"><path d="M 71.777344 19.226562 L 73.558594 23.039062 L 77.375 24.820312 L 73.558594 26.601562 L 71.777344 30.417969 L 69.996094 26.601562 L 66.183594 24.820312 L 69.996094 23.039062 Z M 71.777344 19.226562 " clip-rule="nonzero"/></clipPath><clipPath id="ef57864816"><path d="M 0.183594 0.226562 L 11.375 0.226562 L 11.375 11.417969 L 0.183594 11.417969 Z M 0.183594 0.226562 " clip-rule="nonzero"/></clipPath><clipPath id="4b01d56474"><path d="M 5.777344 0.226562 L 7.558594 4.039062 L 11.375 5.820312 L 7.558594 7.601562 L 5.777344 11.417969 L 3.996094 7.601562 L 0.183594 5.820312 L 3.996094 4.039062 Z M 5.777344 0.226562 " clip-rule="nonzero"/></clipPath><clipPath id="4aca7ae064"><rect x="0" width="12" y="0" height="12"/></clipPath><clipPath id="77bfdfc5af"><rect x="0" width="222" y="0" height="107"/></clipPath></defs><g transform="matrix(1, 0, 0, 1, 89, 96)"><g clip-path="url(#77bfdfc5af)"><g clip-path="url(#b20529d640)"><g clip-path="url(#628cda7634)"><g clip-path="url(#e9484e8c83)"><g clip-path="url(#8c801fef6a)"><path stroke-linecap="butt" transform="matrix(0.70082, -0.261921, 0.261921, 0.70082, 19.778884, 53.204337)" fill="none" stroke-linejoin="miter" d="M 61.550124 -0.0014926 C 27.554275 0.00140269 0.0010839 10.460748 -0.0017018 23.368688 C 0.00223104 36.273566 27.55725 46.733474 61.54638 46.733642 C 95.540401 46.735637 123.09542 36.271401 123.096378 23.368351 C 123.099164 10.460411 95.539254 -0.001325 61.550124 -0.0014926 Z M 61.550124 -0.0014926 " stroke="#004aad" stroke-width="10" stroke-opacity="1" stroke-miterlimit="4"/></g></g></g></g><g fill="#004aad" fill-opacity="1"><g transform="translate(39.323636, 65.117915)"><g><path d="M 20.03125 -7.796875 L 21.984375 -7.796875 L 21.90625 0 L 1.625 0 L 1.65625 -1.265625 L 5.046875 -1.59375 C 5.097656 -3.375 5.125 -5.140625 5.125 -6.890625 C 5.125 -8.648438 5.125 -10.300781 5.125 -11.84375 L 5.125 -14.25 C 5.125 -16.0625 5.125 -17.875 5.125 -19.6875 C 5.125 -21.507812 5.097656 -23.332031 5.046875 -25.15625 L 1.625 -25.484375 L 1.625 -26.78125 L 13.859375 -26.78125 L 13.859375 -25.484375 L 10.25 -25.125 C 10.195312 -23.34375 10.164062 -21.5625 10.15625 -19.78125 C 10.144531 -18 10.140625 -16.253906 10.140625 -14.546875 L 10.140625 -12.125 C 10.140625 -10.4375 10.144531 -8.695312 10.15625 -6.90625 C 10.164062 -5.113281 10.195312 -3.304688 10.25 -1.484375 L 18.484375 -1.484375 Z M 20.03125 -7.796875 "/></g></g></g><g fill="#004aad" fill-opacity="1"><g transform="translate(62.715756, 65.117915)"><g/></g></g><g fill="#004aad" fill-opacity="1"><g transform="translate(71.776586, 65.117915)"><g><path d="M 25.015625 -1.515625 L 27.71875 -1.265625 L 27.71875 0 L 16.671875 0 L 16.671875 -1.265625 L 19.5625 -1.546875 L 13.140625 -13.578125 L 9.96875 -9.703125 C 9.96875 -8.484375 9.972656 -7.1875 9.984375 -5.8125 C 9.992188 -4.4375 10.007812 -3.03125 10.03125 -1.59375 L 13.203125 -1.265625 L 13.203125 0 L 1.625 0 L 1.625 -1.265625 L 5.046875 -1.59375 C 5.097656 -3.375 5.125 -5.175781 5.125 -7 C 5.125 -8.832031 5.125 -10.660156 5.125 -12.484375 L 5.125 -14.25 C 5.125 -16.0625 5.125 -17.875 5.125 -19.6875 C 5.125 -21.507812 5.097656 -23.332031 5.046875 -25.15625 L 1.625 -25.484375 L 1.625 -26.78125 L 13.5 -26.78125 L 13.5 -25.484375 L 10.03125 -25.125 C 10.007812 -23.34375 9.992188 -21.539062 9.984375 -19.71875 C 9.972656 -17.90625 9.96875 -16.082031 9.96875 -14.25 L 9.96875 -11.6875 L 20.5 -24.984375 L 17.03125 -25.484375 L 17.03125 -26.78125 L 26.3125 -26.78125 L 26.3125 -25.484375 L 22.5625 -24.984375 L 16.28125 -17.390625 Z M 25.015625 -1.515625 "/></g></g></g><g fill="#004aad" fill-opacity="1"><g transform="translate(121.595692, 71.366848)"><g><path d="M 32.8125 -16.65625 L 40.1875 -16.65625 L 40.1875 -23.1875 L 32.953125 -23.1875 L 32.953125 -22.703125 C 32.953125 -20.816406 32.90625 -18.800781 32.8125 -16.65625 Z M 40.1875 -34.453125 L 32.953125 -34.453125 L 32.953125 -28.453125 L 40.1875 -28.453125 Z M 18.78125 -31.515625 L 9.71875 -31.515625 L 9.71875 -28.453125 L 18.78125 -28.453125 Z M 9.71875 -20.21875 L 18.78125 -20.21875 L 18.78125 -23.5 L 9.71875 -23.5 Z M 46 -39.796875 L 46 -2.828125 C 46 -1.335938 45.832031 -0.164062 45.5 0.6875 C 45.164062 1.550781 44.554688 2.25 43.671875 2.78125 C 42.804688 3.269531 41.71875 3.570312 40.40625 3.6875 C 39.101562 3.800781 37.53125 3.859375 35.6875 3.859375 C 35.582031 3.035156 35.359375 2.046875 35.015625 0.890625 C 34.671875 -0.265625 34.300781 -1.222656 33.90625 -1.984375 C 34.988281 -1.953125 36.050781 -1.925781 37.09375 -1.90625 C 38.132812 -1.894531 38.835938 -1.890625 39.203125 -1.890625 C 39.859375 -1.921875 40.1875 -2.265625 40.1875 -2.921875 L 40.1875 -11.296875 L 32.265625 -11.296875 C 31.898438 -8.492188 31.320312 -5.726562 30.53125 -3 C 29.738281 -0.269531 28.582031 2.148438 27.0625 4.265625 C 26.695312 3.929688 26.21875 3.566406 25.625 3.171875 C 25.03125 2.773438 24.414062 2.382812 23.78125 2 C 23.15625 1.625 22.613281 1.335938 22.15625 1.140625 C 22.488281 0.679688 22.800781 0.222656 23.09375 -0.234375 C 23.394531 -0.703125 23.660156 -1.203125 23.890625 -1.734375 L 19.328125 0.453125 C 19.191406 -0.015625 19.03125 -0.507812 18.84375 -1.03125 C 18.664062 -1.5625 18.460938 -2.109375 18.234375 -2.671875 C 15.597656 -1.546875 13.453125 -0.609375 11.796875 0.140625 C 10.140625 0.898438 8.84375 1.507812 7.90625 1.96875 C 6.96875 2.4375 6.25 2.828125 5.75 3.140625 C 5.25 3.460938 4.835938 3.753906 4.515625 4.015625 C 4.347656 3.585938 4.082031 3.097656 3.71875 2.546875 C 3.351562 2.003906 2.960938 1.46875 2.546875 0.9375 C 2.140625 0.414062 1.769531 0.00390625 1.4375 -0.296875 C 2 -0.753906 2.535156 -1.410156 3.046875 -2.265625 C 3.554688 -3.128906 3.8125 -4.207031 3.8125 -5.5 L 3.8125 -36.78125 L 11.84375 -36.78125 C 11.351562 -38.164062 10.804688 -39.46875 10.203125 -40.6875 L 16.015625 -41.828125 C 16.441406 -41.035156 16.867188 -40.1875 17.296875 -39.28125 C 17.722656 -38.375 18.050781 -37.539062 18.28125 -36.78125 L 24.53125 -36.78125 L 24.53125 -14.921875 L 9.71875 -14.921875 L 9.71875 -5.25 L 15.90625 -7.78125 C 15.507812 -8.539062 15.113281 -9.304688 14.71875 -10.078125 C 14.320312 -10.859375 13.925781 -11.613281 13.53125 -12.34375 L 18.53125 -14.46875 C 19.257812 -13.28125 19.992188 -12.007812 20.734375 -10.65625 C 21.484375 -9.300781 22.179688 -7.953125 22.828125 -6.609375 C 23.472656 -5.273438 24.007812 -4.0625 24.4375 -2.96875 C 25.320312 -5.050781 25.960938 -7.238281 26.359375 -9.53125 C 26.765625 -11.832031 27.023438 -14.113281 27.140625 -16.375 C 27.253906 -18.644531 27.3125 -20.753906 27.3125 -22.703125 L 27.3125 -39.796875 Z M 46 -39.796875 "/></g></g></g><g fill="#004aad" fill-opacity="1"><g transform="translate(171.161714, 71.366848)"><g><path d="M 12.84375 -13.984375 L 17.09375 -15.8125 L 18.4375 -10.609375 C 15.957031 -9.347656 13.425781 -8.097656 10.84375 -6.859375 C 8.269531 -5.617188 5.894531 -4.488281 3.71875 -3.46875 L 1.34375 -9.421875 C 2.164062 -9.710938 3.0625 -10.046875 4.03125 -10.421875 C 5.007812 -10.804688 6.046875 -11.210938 7.140625 -11.640625 L 7.140625 -24.984375 L 1.9375 -24.984375 L 1.9375 -30.578125 L 7.140625 -30.578125 L 7.140625 -41.328125 L 12.84375 -41.328125 L 12.84375 -30.578125 L 17.75 -30.578125 L 17.75 -24.984375 L 12.84375 -24.984375 Z M 35.140625 -14.671875 L 40.046875 -14.671875 L 40.046875 -19.828125 L 35.140625 -19.828125 Z M 24.484375 -14.671875 L 29.484375 -14.671875 L 29.484375 -19.828125 L 24.484375 -19.828125 Z M 29.484375 -30.03125 L 24.484375 -30.03125 L 24.484375 -25.125 L 29.484375 -25.125 Z M 40.046875 -30.03125 L 35.140625 -30.03125 L 35.140625 -25.125 L 40.046875 -25.125 Z M 35.140625 -35.484375 L 45.59375 -35.484375 L 45.59375 -7.140625 L 40.046875 -7.140625 L 40.046875 -9.265625 L 35.140625 -9.265625 L 35.140625 4.3125 L 29.484375 4.3125 L 29.484375 -9.265625 L 24.484375 -9.265625 L 24.484375 -6.84375 L 19.1875 -6.84375 L 19.1875 -35.484375 L 29.484375 -35.484375 L 29.484375 -41.984375 L 35.140625 -41.984375 Z M 35.140625 -35.484375 "/></g></g></g><g clip-path="url(#75792ea841)"><g clip-path="url(#45fb116fd2)"><g transform="matrix(1, 0, 0, 1, 54, 23)"><g clip-path="url(#978a32c74d)"><g clip-path="url(#2688fb1ce5)"><g clip-path="url(#1ea0263f37)"><path fill="#004aad" d="M 0.359375 0.546875 L 17.777344 0.546875 L 17.777344 17.964844 L 0.359375 17.964844 Z M 0.359375 0.546875 " fill-opacity="1" fill-rule="nonzero"/></g></g></g></g></g></g><g clip-path="url(#2931180741)"><g clip-path="url(#94f3a12050)"><g transform="matrix(1, 0, 0, 1, 66, 19)"><g clip-path="url(#4aca7ae064)"><g clip-path="url(#ef57864816)"><g clip-path="url(#4b01d56474)"><path fill="#004aad" d="M 0.183594 0.226562 L 11.375 0.226562 L 11.375 11.417969 L 0.183594 11.417969 Z M 0.183594 0.226562 " fill-opacity="1" fill-rule="nonzero"/></g></g></g></g></g></g></g></g></svg>