<svg xmlns="http://www.w3.org/2000/svg" xmlns:xlink="http://www.w3.org/1999/xlink" width="559" zoomAndPan="magnify" viewBox="0 0 419.25 297.749991" height="397" preserveAspectRatio="xMidYMid meet" version="1.0"><metadata/><defs><g/><clipPath id="0c6009ec6f"><path d="M 0 0.140625 L 418.5 0.140625 L 418.5 297.359375 L 0 297.359375 Z M 0 0.140625 " clip-rule="nonzero"/></clipPath><clipPath id="4d57c02f0f"><path d="M 4 64 L 415 64 L 415 281 L 4 281 Z M 4 64 " clip-rule="nonzero"/></clipPath><clipPath id="a535b1a74c"><path d="M -22.460938 171.246094 L 383.316406 19.59375 L 440.9375 173.777344 L 35.164062 325.429688 Z M -22.460938 171.246094 " clip-rule="nonzero"/></clipPath><clipPath id="a344fc6923"><path d="M -22.453125 171.246094 L 386.339844 18.464844 L 445.628906 177.101562 L 36.835938 329.882812 Z M -22.453125 171.246094 " clip-rule="nonzero"/></clipPath><clipPath id="00d4d2ba45"><path d="M 180.457031 95.410156 C 68.390625 137.292969 -9.5625 205.734375 6.335938 248.28125 C 22.238281 290.828125 125.972656 291.363281 238.039062 249.480469 C 350.101562 207.601562 428.058594 139.15625 412.15625 96.613281 C 396.253906 54.066406 292.519531 53.53125 180.457031 95.410156 Z M 180.457031 95.410156 " clip-rule="nonzero"/></clipPath><clipPath id="9446c3d86a"><rect x="0" width="293" y="0" height="247"/></clipPath><clipPath id="bababffab3"><path d="M 140.210938 31.75 L 222.136719 31.75 L 222.136719 113.675781 L 140.210938 113.675781 Z M 140.210938 31.75 " clip-rule="nonzero"/></clipPath><clipPath id="099999b9b5"><path d="M 181.175781 31.75 L 194.207031 59.679688 L 222.136719 72.710938 L 194.207031 85.746094 L 181.175781 113.675781 L 168.140625 85.746094 L 140.210938 72.710938 L 168.140625 59.679688 Z M 181.175781 31.75 " clip-rule="nonzero"/></clipPath><clipPath id="aff104b5a8"><path d="M 0.210938 0.75 L 82.136719 0.75 L 82.136719 82.675781 L 0.210938 82.675781 Z M 0.210938 0.75 " clip-rule="nonzero"/></clipPath><clipPath id="f73b194771"><path d="M 41.175781 0.75 L 54.207031 28.679688 L 82.136719 41.710938 L 54.207031 54.746094 L 41.175781 82.675781 L 28.140625 54.746094 L 0.210938 41.710938 L 28.140625 28.679688 Z M 41.175781 0.75 " clip-rule="nonzero"/></clipPath><clipPath id="82a6b8ea30"><rect x="0" width="83" y="0" height="83"/></clipPath><clipPath id="75ff4644b6"><path d="M 195.816406 11.417969 L 248.457031 11.417969 L 248.457031 64.058594 L 195.816406 64.058594 Z M 195.816406 11.417969 " clip-rule="nonzero"/></clipPath><clipPath id="8b78509aee"><path d="M 222.136719 11.417969 L 230.511719 29.363281 L 248.457031 37.738281 L 230.511719 46.113281 L 222.136719 64.058594 L 213.761719 46.113281 L 195.816406 37.738281 L 213.761719 29.363281 Z M 222.136719 11.417969 " clip-rule="nonzero"/></clipPath><clipPath id="2e316baa40"><path d="M 0.816406 0.417969 L 53.457031 0.417969 L 53.457031 53.058594 L 0.816406 53.058594 Z M 0.816406 0.417969 " clip-rule="nonzero"/></clipPath><clipPath id="9f296994a9"><path d="M 27.136719 0.417969 L 35.511719 18.363281 L 53.457031 26.738281 L 35.511719 35.113281 L 27.136719 53.058594 L 18.761719 35.113281 L 0.816406 26.738281 L 18.761719 18.363281 Z M 27.136719 0.417969 " clip-rule="nonzero"/></clipPath><clipPath id="abbf5eaca9"><rect x="0" width="54" y="0" height="54"/></clipPath><clipPath id="2ac707f280"><rect x="0" width="419" y="0" height="298"/></clipPath></defs><g clip-path="url(#0c6009ec6f)"><g transform="matrix(1, 0, 0, 1, 0, 0.000000000000006772)"><g clip-path="url(#2ac707f280)"><g clip-path="url(#4d57c02f0f)"><g clip-path="url(#a535b1a74c)"><g clip-path="url(#a344fc6923)"><g clip-path="url(#00d4d2ba45)"><path stroke-linecap="butt" transform="matrix(0.70082, -0.261921, 0.261921, 0.70082, -22.45397, 171.245844)" fill="none" stroke-linejoin="miter" d="M 289.533989 -0.00100613 C 129.626623 -0.00137354 0.00238957 49.212562 -0.00112427 109.921365 C 0.0002526 170.631995 129.627384 219.841768 289.532922 219.847026 C 449.435397 219.845566 579.066349 170.628568 579.063144 109.922828 C 579.061768 49.212197 449.434636 0.00242416 289.533989 -0.00100613 Z M 289.533989 -0.00100613 " stroke="#004aad" stroke-width="28" stroke-opacity="1" stroke-miterlimit="4"/></g></g></g></g><g transform="matrix(1, 0, 0, 1, 68, 30)"><g clip-path="url(#9446c3d86a)"><g fill="#004aad" fill-opacity="1"><g transform="translate(1.490995, 197.268073)"><g><path d="M 94.234375 -36.671875 L 103.390625 -36.671875 L 103.0625 0 L 7.640625 0 L 7.8125 -5.9375 L 23.765625 -7.46875 C 23.992188 -15.84375 24.109375 -24.160156 24.109375 -32.421875 C 24.109375 -40.691406 24.109375 -48.445312 24.109375 -55.6875 L 24.109375 -67.0625 C 24.109375 -75.550781 24.109375 -84.066406 24.109375 -92.609375 C 24.109375 -101.160156 23.992188 -109.738281 23.765625 -118.34375 L 7.640625 -119.859375 L 7.640625 -125.984375 L 65.203125 -125.984375 L 65.203125 -119.859375 L 48.21875 -118.171875 C 47.988281 -109.796875 47.84375 -101.414062 47.78125 -93.03125 C 47.726562 -84.65625 47.703125 -76.453125 47.703125 -68.421875 L 47.703125 -57.046875 C 47.703125 -49.117188 47.726562 -40.9375 47.78125 -32.5 C 47.84375 -24.070312 47.988281 -15.5625 48.21875 -6.96875 L 86.921875 -6.96875 Z M 94.234375 -36.671875 "/></g></g></g><g fill="#004aad" fill-opacity="1"><g transform="translate(111.513619, 197.268073)"><g/></g></g><g fill="#004aad" fill-opacity="1"><g transform="translate(154.13038, 197.268073)"><g><path d="M 117.65625 -7.125 L 130.390625 -5.9375 L 130.390625 0 L 78.4375 0 L 78.4375 -5.9375 L 92.015625 -7.296875 L 61.796875 -63.84375 L 46.859375 -45.671875 C 46.859375 -39.898438 46.882812 -33.785156 46.9375 -27.328125 C 47 -20.878906 47.085938 -14.257812 47.203125 -7.46875 L 62.140625 -5.9375 L 62.140625 0 L 7.640625 0 L 7.640625 -5.9375 L 23.765625 -7.46875 C 23.992188 -15.84375 24.109375 -24.332031 24.109375 -32.9375 C 24.109375 -41.539062 24.109375 -50.144531 24.109375 -58.75 L 24.109375 -67.0625 C 24.109375 -75.550781 24.109375 -84.066406 24.109375 -92.609375 C 24.109375 -101.160156 23.992188 -109.738281 23.765625 -118.34375 L 7.640625 -119.859375 L 7.640625 -125.984375 L 63.5 -125.984375 L 63.5 -119.859375 L 47.203125 -118.171875 C 47.085938 -109.796875 47 -101.332031 46.9375 -92.78125 C 46.882812 -84.238281 46.859375 -75.664062 46.859375 -67.0625 L 46.859375 -55.015625 L 96.4375 -117.484375 L 80.140625 -119.859375 L 80.140625 -125.984375 L 123.765625 -125.984375 L 123.765625 -119.859375 L 106.109375 -117.484375 L 76.578125 -81.828125 Z M 117.65625 -7.125 "/></g></g></g></g></g><g clip-path="url(#bababffab3)"><g clip-path="url(#099999b9b5)"><g transform="matrix(1, 0, 0, 1, 140, 31)"><g clip-path="url(#82a6b8ea30)"><g clip-path="url(#aff104b5a8)"><g clip-path="url(#f73b194771)"><path fill="#004aad" d="M 0.210938 0.75 L 82.136719 0.75 L 82.136719 82.675781 L 0.210938 82.675781 Z M 0.210938 0.75 " fill-opacity="1" fill-rule="nonzero"/></g></g></g></g></g></g><g clip-path="url(#75ff4644b6)"><g clip-path="url(#8b78509aee)"><g transform="matrix(1, 0, 0, 1, 195, 11)"><g clip-path="url(#abbf5eaca9)"><g clip-path="url(#2e316baa40)"><g clip-path="url(#9f296994a9)"><path fill="#004aad" d="M 0.816406 0.417969 L 53.457031 0.417969 L 53.457031 53.058594 L 0.816406 53.058594 Z M 0.816406 0.417969 " fill-opacity="1" fill-rule="nonzero"/></g></g></g></g></g></g></g></g></g></svg>